<svg width="52" height="64" xmlns="http://www.w3.org/2000/svg" xmlns:xlink="http://www.w3.org/1999/xlink" xml:space="preserve" overflow="hidden"><defs><clipPath id="clip0"><rect x="69" y="248" width="52" height="64"/></clipPath></defs><g clip-path="url(#clip0)" transform="translate(-69 -248)"><path d="M49 18.92C35.8888 18.9254 25.2644 29.5585 25.2697 42.6697 25.2698 42.7032 25.2698 42.7366 25.27 42.77 25.27 59.25 42.27 74.36 47.5 78.36 48.4056 79.1078 49.7144 79.1078 50.62 78.36 55.86 74.24 72.72 59.25 72.72 42.77 72.7808 29.6589 62.2014 18.981 49.0903 18.9202 49.0602 18.9201 49.0301 18.92 49 18.92ZM49 52.63C43.4772 52.63 39 48.1528 39 42.63 39 37.1072 43.4772 32.63 49 32.63 54.5228 32.63 59 37.1072 59 42.63 59 48.1528 54.5228 52.63 49 52.63Z" fill="#2F7998" transform="matrix(1 0 0 1.00002 45.89 230.878)"/></g></svg>