<svg width="136" height="136" xmlns="http://www.w3.org/2000/svg" xmlns:xlink="http://www.w3.org/1999/xlink" xml:space="preserve" overflow="hidden"><defs><clipPath id="clip0"><rect x="54" y="119" width="136" height="136"/></clipPath></defs><g clip-path="url(#clip0)" transform="translate(-54 -119)"><path d="M72.1333 232.333 72.1333 236.867 81.2 236.867 81.2 232.333 72.1333 232.333ZM117.467 232.333 117.467 236.867 126.533 236.867 126.533 232.333 117.467 232.333ZM81.2 232.333 81.2 227.799 72.1333 227.799 72.1333 232.333 81.2 232.333ZM117.467 227.797 117.467 232.333 126.533 232.333 126.533 227.797 117.467 227.797ZM99.3333 209.667C109.349 209.667 117.467 217.783 117.467 227.797L126.533 227.797C126.533 212.774 114.355 200.6 99.3333 200.6L99.3333 209.667ZM81.2 227.799C81.2 217.784 89.3183 209.667 99.3333 209.667L99.3333 200.6C84.3115 200.6 72.1333 212.777 72.1333 227.799L81.2 227.799ZM99.3333 155.267C89.3186 155.267 81.2 163.385 81.2 173.4L90.2667 173.4C90.2667 168.393 94.326 164.333 99.3333 164.333L99.3333 155.267ZM117.467 173.4C117.467 163.385 109.348 155.267 99.3333 155.267L99.3333 164.333C104.341 164.333 108.4 168.393 108.4 173.4L117.467 173.4ZM99.3333 191.533C109.348 191.533 117.467 183.415 117.467 173.4L108.4 173.4C108.4 178.407 104.341 182.467 99.3333 182.467L99.3333 191.533ZM99.3333 182.467C94.326 182.467 90.2667 178.407 90.2667 173.4L81.2 173.4C81.2 183.415 89.3186 191.533 99.3333 191.533L99.3333 182.467ZM67.6 146.2 176.4 146.2 176.4 137.133 67.6 137.133 67.6 146.2ZM180.933 150.733 180.933 223.267 190 223.267 190 150.733 180.933 150.733ZM176.4 227.8 67.6 227.8 67.6 236.867 176.4 236.867 176.4 227.8ZM63.0667 223.267 63.0667 150.733 54 150.733 54 223.267 63.0667 223.267ZM67.6 227.8C65.0963 227.8 63.0667 225.77 63.0667 223.267L54 223.267C54 230.777 60.0889 236.867 67.6 236.867L67.6 227.8ZM180.933 223.267C180.933 225.77 178.903 227.8 176.4 227.8L176.4 236.867C183.911 236.867 190 230.777 190 223.267L180.933 223.267ZM176.4 146.2C178.903 146.2 180.933 148.23 180.933 150.733L190 150.733C190 143.222 183.911 137.133 176.4 137.133L176.4 146.2ZM67.6 137.133C60.0889 137.133 54 143.222 54 150.733L63.0667 150.733C63.0667 148.23 65.0963 146.2 67.6 146.2L67.6 137.133ZM135.6 173.4 162.8 173.4 162.8 164.333 135.6 164.333 135.6 173.4ZM135.6 200.6 162.8 200.6 162.8 191.533 135.6 191.533 135.6 200.6Z" fill="#2F7998"/></g></svg>