<svg width="378" height="378" xmlns="http://www.w3.org/2000/svg" xmlns:xlink="http://www.w3.org/1999/xlink" xml:space="preserve" overflow="hidden"><defs><clipPath id="clip0"><rect x="451" y="-7" width="378" height="378"/></clipPath></defs><g clip-path="url(#clip0)" transform="translate(-451 7)"><path d="M493.812 279.675C483.159 290.313 483.159 307.628 493.812 318.273 504.456 328.923 521.769 328.923 532.341 318.273L540.035 310.652 572.118 342.728C577.604 348.222 586.397 348.222 591.891 342.728L639.704 294.915C645.198 289.431 645.198 280.635 639.704 275.141L607.627 243.066 664.77 185.85C676.998 192.168 690.935 195.735 705.639 195.735 754.956 195.735 794.931 155.766 794.931 106.445 794.931 57.1292 754.956 17.1527 705.639 17.1527 656.319 17.1527 616.348 57.1292 616.348 106.445 616.348 121.148 619.917 135.086 626.234 147.314L493.812 279.675ZM671.295 106.445C671.295 87.4879 686.683 72.1003 705.638 72.1003 724.596 72.1003 739.98 87.4879 739.98 106.445 739.98 125.401 724.596 140.787 705.638 140.787 686.684 140.787 671.295 125.401 671.295 106.445Z" fill="#2F7998" fill-rule="evenodd"/></g></svg>