<svg width="75" height="75" xmlns="http://www.w3.org/2000/svg" xmlns:xlink="http://www.w3.org/1999/xlink" xml:space="preserve" overflow="hidden"><defs><clipPath id="clip0"><rect x="-92" y="150" width="75" height="75"/></clipPath></defs><g clip-path="url(#clip0)" transform="translate(92 -150)"><path d="M-26.1611 162.042-82.8389 162.042C-87.8901 162.042-92 166.152-92 171.203L-92 203.797C-92 208.848-87.8901 212.958-82.8389 212.958L-26.1611 212.958C-21.1099 212.958-17 208.848-17 203.797L-17 171.204C-16.999 166.152-21.1089 162.042-26.1611 162.042ZM-30.6375 168.018-54.5 183.392-78.3625 168.018-30.6375 168.018ZM-26.1611 206.983-82.8389 206.983C-84.595 206.983-86.0234 205.553-86.0234 203.798L-86.0234 171.373-56.3438 190.458C-56.3039 190.483-56.2611 190.5-56.2203 190.523-56.1774 190.547-56.1336 190.57-56.0898 190.592-55.8597 190.71-55.6226 190.806-55.3805 190.869-55.3556 190.876-55.3307 190.879-55.3058 190.885-55.0399 190.947-54.7709 190.986-54.502 190.986-54.501 190.986-54.5 190.986-54.5 190.986-54.498 190.986-54.497 190.986-54.496 190.986-54.2271 190.986-53.9581 190.948-53.6922 190.885-53.6673 190.879-53.6424 190.876-53.6175 190.869-53.3754 190.806-53.1393 190.71-52.9082 190.592-52.8644 190.57-52.8206 190.547-52.7778 190.523-52.7369 190.5-52.6941 190.483-52.6542 190.458L-22.9746 171.373-22.9746 203.797C-22.9756 205.553-24.405 206.983-26.1611 206.983Z" fill="#2F7998"/></g></svg>