<svg width="378" height="378" xmlns="http://www.w3.org/2000/svg" xmlns:xlink="http://www.w3.org/1999/xlink" overflow="hidden"><defs><clipPath id="clip0"><rect x="0" y="0" width="378" height="378"/></clipPath><linearGradient x1="104" y1="233" x2="104" y2="258" gradientUnits="userSpaceOnUse" spreadMethod="reflect" id="fill1"><stop offset="0" stop-color="#D9E5EB"/><stop offset="0.125" stop-color="#D8E5EC"/><stop offset="0.25" stop-color="#D8E5ED"/><stop offset="0.375" stop-color="#D7E6ED"/><stop offset="0.5" stop-color="#D6E6EE"/><stop offset="0.625" stop-color="#D5E6EF"/><stop offset="0.75" stop-color="#D3E6EF"/><stop offset="0.875" stop-color="#D1E6EF"/><stop offset="1" stop-color="#D0E7F0"/></linearGradient><linearGradient x1="274.5" y1="234" x2="274.5" y2="259" gradientUnits="userSpaceOnUse" spreadMethod="reflect" id="fill2"><stop offset="0" stop-color="#D9E5EB"/><stop offset="0.125" stop-color="#D8E5EC"/><stop offset="0.25" stop-color="#D8E5ED"/><stop offset="0.375" stop-color="#D7E6ED"/><stop offset="0.5" stop-color="#D6E6EE"/><stop offset="0.625" stop-color="#D5E6EF"/><stop offset="0.75" stop-color="#D3E6EF"/><stop offset="0.875" stop-color="#D1E6EF"/><stop offset="1" stop-color="#D0E7F0"/></linearGradient><linearGradient x1="126.5" y1="244" x2="126.5" y2="270" gradientUnits="userSpaceOnUse" spreadMethod="reflect" id="fill3"><stop offset="0" stop-color="#409EC4"/><stop offset="0.0232558" stop-color="#3F9DC3"/><stop offset="0.0465116" stop-color="#3F9DC3"/><stop offset="0.0697674" stop-color="#3F9DC3"/><stop offset="0.0930233" stop-color="#3F9DC3"/><stop offset="0.116279" stop-color="#3F9DC3"/><stop offset="0.139535" stop-color="#3F9DC2"/><stop offset="0.162791" stop-color="#3F9CC2"/><stop offset="0.186047" stop-color="#3F9CC2"/><stop offset="0.209302" stop-color="#3F9CC1"/><stop offset="0.232558" stop-color="#3E9BC1"/><stop offset="0.255814" stop-color="#3E9BC0"/><stop offset="0.27907" stop-color="#3E9ABF"/><stop offset="0.302326" stop-color="#3E9ABF"/><stop offset="0.325581" stop-color="#3D99BE"/><stop offset="0.348837" stop-color="#3D98BD"/><stop offset="0.372093" stop-color="#3D98BD"/><stop offset="0.395349" stop-color="#3D97BC"/><stop offset="0.418605" stop-color="#3C96BB"/><stop offset="0.44186" stop-color="#3C95BA"/><stop offset="0.465116" stop-color="#3B95B9"/><stop offset="0.488372" stop-color="#3B94B8"/><stop offset="0.511628" stop-color="#3B93B7"/><stop offset="0.534884" stop-color="#3A92B6"/><stop offset="0.55814" stop-color="#3A91B5"/><stop offset="0.581395" stop-color="#3990B4"/><stop offset="0.604651" stop-color="#398FB2"/><stop offset="0.627907" stop-color="#388EB1"/><stop offset="0.651163" stop-color="#388DB0"/><stop offset="0.674419" stop-color="#378CAE"/><stop offset="0.697674" stop-color="#378BAD"/><stop offset="0.72093" stop-color="#3689AC"/><stop offset="0.744186" stop-color="#3688AA"/><stop offset="0.767442" stop-color="#3587A9"/><stop offset="0.790698" stop-color="#3586A7"/><stop offset="0.813953" stop-color="#3484A6"/><stop offset="0.837209" stop-color="#3383A4"/><stop offset="0.860465" stop-color="#3382A2"/><stop offset="0.883721" stop-color="#3280A1"/><stop offset="0.906977" stop-color="#317F9F"/><stop offset="0.930233" stop-color="#317D9D"/><stop offset="0.953488" stop-color="#307C9B"/><stop offset="0.976744" stop-color="#2F7A99"/><stop offset="1" stop-color="#2F7998"/></linearGradient><linearGradient x1="251.5" y1="244" x2="251.5" y2="270" gradientUnits="userSpaceOnUse" spreadMethod="reflect" id="fill4"><stop offset="0" stop-color="#409EC4"/><stop offset="0.0232558" stop-color="#3F9DC3"/><stop offset="0.0465116" stop-color="#3F9DC3"/><stop offset="0.0697674" stop-color="#3F9DC3"/><stop offset="0.0930233" stop-color="#3F9DC3"/><stop offset="0.116279" stop-color="#3F9DC3"/><stop offset="0.139535" stop-color="#3F9DC2"/><stop offset="0.162791" stop-color="#3F9CC2"/><stop offset="0.186047" stop-color="#3F9CC2"/><stop offset="0.209302" stop-color="#3F9CC1"/><stop offset="0.232558" stop-color="#3E9BC1"/><stop offset="0.255814" stop-color="#3E9BC0"/><stop offset="0.27907" stop-color="#3E9ABF"/><stop offset="0.302326" stop-color="#3E9ABF"/><stop offset="0.325581" stop-color="#3D99BE"/><stop offset="0.348837" stop-color="#3D98BD"/><stop offset="0.372093" stop-color="#3D98BD"/><stop offset="0.395349" stop-color="#3D97BC"/><stop offset="0.418605" stop-color="#3C96BB"/><stop offset="0.44186" stop-color="#3C95BA"/><stop offset="0.465116" stop-color="#3B95B9"/><stop offset="0.488372" stop-color="#3B94B8"/><stop offset="0.511628" stop-color="#3B93B7"/><stop offset="0.534884" stop-color="#3A92B6"/><stop offset="0.55814" stop-color="#3A91B5"/><stop offset="0.581395" stop-color="#3990B4"/><stop offset="0.604651" stop-color="#398FB2"/><stop offset="0.627907" stop-color="#388EB1"/><stop offset="0.651163" stop-color="#388DB0"/><stop offset="0.674419" stop-color="#378CAE"/><stop offset="0.697674" stop-color="#378BAD"/><stop offset="0.72093" stop-color="#3689AC"/><stop offset="0.744186" stop-color="#3688AA"/><stop offset="0.767442" stop-color="#3587A9"/><stop offset="0.790698" stop-color="#3586A7"/><stop offset="0.813953" stop-color="#3484A6"/><stop offset="0.837209" stop-color="#3383A4"/><stop offset="0.860465" stop-color="#3382A2"/><stop offset="0.883721" stop-color="#3280A1"/><stop offset="0.906977" stop-color="#317F9F"/><stop offset="0.930233" stop-color="#317D9D"/><stop offset="0.953488" stop-color="#307C9B"/><stop offset="0.976744" stop-color="#2F7A99"/><stop offset="1" stop-color="#2F7998"/></linearGradient><linearGradient x1="216.5" y1="27" x2="216.5" y2="121" gradientUnits="userSpaceOnUse" spreadMethod="reflect" id="fill5"><stop offset="0" stop-color="#72CED0"/><stop offset="0.0116279" stop-color="#73CED0"/><stop offset="0.0232558" stop-color="#75CFD1"/><stop offset="0.0348837" stop-color="#77CFD1"/><stop offset="0.0465116" stop-color="#79D0D2"/><stop offset="0.0581395" stop-color="#7BD1D3"/><stop offset="0.0697674" stop-color="#7DD1D3"/><stop offset="0.0813954" stop-color="#7ED2D4"/><stop offset="0.0930233" stop-color="#80D3D4"/><stop offset="0.104651" stop-color="#82D3D5"/><stop offset="0.116279" stop-color="#83D4D5"/><stop offset="0.127907" stop-color="#85D4D6"/><stop offset="0.139535" stop-color="#87D5D7"/><stop offset="0.151163" stop-color="#89D5D7"/><stop offset="0.162791" stop-color="#8AD6D8"/><stop offset="0.174419" stop-color="#8CD7D8"/><stop offset="0.186047" stop-color="#8DD7D9"/><stop offset="0.197674" stop-color="#8FD8D9"/><stop offset="0.209302" stop-color="#90D8DA"/><stop offset="0.22093" stop-color="#92D9DA"/><stop offset="0.232558" stop-color="#94D9DB"/><stop offset="0.244186" stop-color="#95DADB"/><stop offset="0.255814" stop-color="#97DADC"/><stop offset="0.267442" stop-color="#98DBDC"/><stop offset="0.27907" stop-color="#99DBDD"/><stop offset="0.290698" stop-color="#9BDCDD"/><stop offset="0.302326" stop-color="#9CDCDE"/><stop offset="0.313953" stop-color="#9EDDDE"/><stop offset="0.325581" stop-color="#9FDDDF"/><stop offset="0.337209" stop-color="#A0DEDF"/><stop offset="0.348837" stop-color="#A2DEE0"/><stop offset="0.360465" stop-color="#A3DFE0"/><stop offset="0.372093" stop-color="#A4DFE0"/><stop offset="0.383721" stop-color="#A5DFE1"/><stop offset="0.395349" stop-color="#A7E0E1"/><stop offset="0.406977" stop-color="#A8E0E2"/><stop offset="0.418605" stop-color="#A9E1E2"/><stop offset="0.430233" stop-color="#AAE1E2"/><stop offset="0.44186" stop-color="#ABE1E3"/><stop offset="0.453488" stop-color="#ACE2E3"/><stop offset="0.465116" stop-color="#AEE2E4"/><stop offset="0.476744" stop-color="#AFE3E4"/><stop offset="0.488372" stop-color="#B0E3E4"/><stop offset="0.5" stop-color="#B1E3E5"/><stop offset="0.511628" stop-color="#B2E4E5"/><stop offset="0.523256" stop-color="#B3E4E5"/><stop offset="0.534884" stop-color="#B4E4E6"/><stop offset="0.546512" stop-color="#B5E5E6"/><stop offset="0.55814" stop-color="#B6E5E6"/><stop offset="0.569767" stop-color="#B7E5E7"/><stop offset="0.581395" stop-color="#B8E6E7"/><stop offset="0.593023" stop-color="#B8E6E7"/><stop offset="0.604651" stop-color="#B9E6E7"/><stop offset="0.616279" stop-color="#BAE7E8"/><stop offset="0.627907" stop-color="#BBE7E8"/><stop offset="0.639535" stop-color="#BCE7E8"/><stop offset="0.651163" stop-color="#BCE7E8"/><stop offset="0.662791" stop-color="#BDE8E9"/><stop offset="0.674419" stop-color="#BEE8E9"/><stop offset="0.686047" stop-color="#BFE8E9"/><stop offset="0.697674" stop-color="#BFE8E9"/><stop offset="0.709302" stop-color="#C0E9EA"/><stop offset="0.72093" stop-color="#C1E9EA"/><stop offset="0.732558" stop-color="#C1E9EA"/><stop offset="0.744186" stop-color="#C2E9EA"/><stop offset="0.755814" stop-color="#C2E9EA"/><stop offset="0.767442" stop-color="#C3EAEB"/><stop offset="0.77907" stop-color="#C3EAEB"/><stop offset="0.790698" stop-color="#C4EAEB"/><stop offset="0.802326" stop-color="#C4EAEB"/><stop offset="0.813953" stop-color="#C5EAEB"/><stop offset="0.825581" stop-color="#C5EAEB"/><stop offset="0.837209" stop-color="#C6EBEC"/><stop offset="0.848837" stop-color="#C6EBEC"/><stop offset="0.860465" stop-color="#C6EBEC"/><stop offset="0.872093" stop-color="#C7EBEC"/><stop offset="0.883721" stop-color="#C7EBEC"/><stop offset="0.895349" stop-color="#C7EBEC"/><stop offset="0.906977" stop-color="#C7EBEC"/><stop offset="0.918605" stop-color="#C8EBEC"/><stop offset="0.930233" stop-color="#C8EBEC"/><stop offset="0.94186" stop-color="#C8EBEC"/><stop offset="0.953488" stop-color="#C8EBEC"/><stop offset="0.965116" stop-color="#C8EBEC"/><stop offset="0.976744" stop-color="#C8EBEC"/><stop offset="0.988372" stop-color="#C8EBEC"/><stop offset="1" stop-color="#C9ECED"/></linearGradient><linearGradient x1="162" y1="98" x2="237" y2="98" gradientUnits="userSpaceOnUse" spreadMethod="reflect" id="fill6"><stop offset="0" stop-color="#A1D0DB"/><stop offset="0.0243902" stop-color="#A2D0DB"/><stop offset="0.0487805" stop-color="#A4D1DC"/><stop offset="0.0731707" stop-color="#A6D2DD"/><stop offset="0.097561" stop-color="#A8D3DD"/><stop offset="0.121951" stop-color="#AAD4DE"/><stop offset="0.146341" stop-color="#ABD5DF"/><stop offset="0.170732" stop-color="#ADD6DF"/><stop offset="0.195122" stop-color="#AFD7E0"/><stop offset="0.219512" stop-color="#B0D7E0"/><stop offset="0.243902" stop-color="#B2D8E1"/><stop offset="0.268293" stop-color="#B3D9E2"/><stop offset="0.292683" stop-color="#B5DAE2"/><stop offset="0.317073" stop-color="#B6DAE3"/><stop offset="0.341463" stop-color="#B7DBE3"/><stop offset="0.365854" stop-color="#B9DCE4"/><stop offset="0.390244" stop-color="#BADCE4"/><stop offset="0.414634" stop-color="#BBDDE5"/><stop offset="0.439024" stop-color="#BCDDE5"/><stop offset="0.463415" stop-color="#BDDEE6"/><stop offset="0.487805" stop-color="#BFDFE6"/><stop offset="0.512195" stop-color="#C0DFE6"/><stop offset="0.536585" stop-color="#C1E0E7"/><stop offset="0.560976" stop-color="#C2E0E7"/><stop offset="0.585366" stop-color="#C2E0E7"/><stop offset="0.609756" stop-color="#C3E1E8"/><stop offset="0.634146" stop-color="#C4E1E8"/><stop offset="0.658537" stop-color="#C5E2E8"/><stop offset="0.682927" stop-color="#C6E2E9"/><stop offset="0.707317" stop-color="#C6E2E9"/><stop offset="0.731707" stop-color="#C7E3E9"/><stop offset="0.756098" stop-color="#C8E3E9"/><stop offset="0.780488" stop-color="#C8E3EA"/><stop offset="0.804878" stop-color="#C9E4EA"/><stop offset="0.829268" stop-color="#C9E4EA"/><stop offset="0.853659" stop-color="#C9E4EA"/><stop offset="0.878049" stop-color="#CAE4EA"/><stop offset="0.902439" stop-color="#CAE4EA"/><stop offset="0.926829" stop-color="#CAE4EA"/><stop offset="0.951219" stop-color="#CAE4EA"/><stop offset="0.97561" stop-color="#CAE4EA"/><stop offset="1" stop-color="#CBE5EB"/></linearGradient><linearGradient x1="148.233" y1="16.7295" x2="248.768" y2="153.271" gradientUnits="userSpaceOnUse" spreadMethod="reflect" id="fill7"><stop offset="0" stop-color="#90CCD8"/><stop offset="0.0625" stop-color="#91CCD8"/><stop offset="0.125" stop-color="#93CCD8"/><stop offset="0.1875" stop-color="#95CDD8"/><stop offset="0.25" stop-color="#97CDD9"/><stop offset="0.3125" stop-color="#98CED9"/><stop offset="0.375" stop-color="#99CED9"/><stop offset="0.4375" stop-color="#9BCED9"/><stop offset="0.5" stop-color="#9CCEDA"/><stop offset="0.5625" stop-color="#9DCFDA"/><stop offset="0.625" stop-color="#9ECFDA"/><stop offset="0.6875" stop-color="#9FCFDA"/><stop offset="0.75" stop-color="#9FCFDA"/><stop offset="0.8125" stop-color="#A0CFDA"/><stop offset="0.875" stop-color="#A0CFDA"/><stop offset="0.9375" stop-color="#A0CFDA"/><stop offset="1" stop-color="#A1D0DB"/></linearGradient><linearGradient x1="149.327" y1="130.205" x2="201.673" y2="65.7945" gradientUnits="userSpaceOnUse" spreadMethod="reflect" id="fill8"><stop offset="0" stop-color="#D6F1F2"/><stop offset="0.0588235" stop-color="#D7F1F2"/><stop offset="0.117647" stop-color="#D9F2F3"/><stop offset="0.176471" stop-color="#DBF2F3"/><stop offset="0.235294" stop-color="#DDF3F4"/><stop offset="0.294118" stop-color="#DEF3F4"/><stop offset="0.352941" stop-color="#E0F4F5"/><stop offset="0.411765" stop-color="#E1F4F5"/><stop offset="0.470588" stop-color="#E2F5F6"/><stop offset="0.529412" stop-color="#E3F5F6"/><stop offset="0.588235" stop-color="#E4F5F6"/><stop offset="0.647059" stop-color="#E5F6F7"/><stop offset="0.705882" stop-color="#E6F6F7"/><stop offset="0.764706" stop-color="#E6F6F7"/><stop offset="0.823529" stop-color="#E7F6F7"/><stop offset="0.882353" stop-color="#E7F6F7"/><stop offset="0.941176" stop-color="#E7F6F7"/><stop offset="1" stop-color="#E8F7F8"/></linearGradient><linearGradient x1="128" y1="169" x2="232" y2="169" gradientUnits="userSpaceOnUse" spreadMethod="reflect" id="fill9"><stop offset="0" stop-color="#2F7998"/><stop offset="0.00641026" stop-color="#307A98"/><stop offset="0.0128205" stop-color="#327B99"/><stop offset="0.0192308" stop-color="#347C9A"/><stop offset="0.025641" stop-color="#367D9B"/><stop offset="0.0320513" stop-color="#387E9C"/><stop offset="0.0384615" stop-color="#3A7F9D"/><stop offset="0.0448718" stop-color="#3B809E"/><stop offset="0.0512821" stop-color="#3D819F"/><stop offset="0.0576923" stop-color="#3F82A0"/><stop offset="0.0641026" stop-color="#4183A0"/><stop offset="0.0705128" stop-color="#4384A1"/><stop offset="0.0769231" stop-color="#4485A2"/><stop offset="0.0833333" stop-color="#4686A3"/><stop offset="0.0897436" stop-color="#4888A4"/><stop offset="0.0961538" stop-color="#4A89A5"/><stop offset="0.102564" stop-color="#4B8AA6"/><stop offset="0.108974" stop-color="#4D8BA6"/><stop offset="0.115385" stop-color="#4F8CA7"/><stop offset="0.121795" stop-color="#508DA8"/><stop offset="0.128205" stop-color="#528EA9"/><stop offset="0.134615" stop-color="#548FAA"/><stop offset="0.141026" stop-color="#5590AB"/><stop offset="0.147436" stop-color="#5791AB"/><stop offset="0.153846" stop-color="#5992AC"/><stop offset="0.160256" stop-color="#5A92AD"/><stop offset="0.166667" stop-color="#5C93AE"/><stop offset="0.173077" stop-color="#5E94AF"/><stop offset="0.179487" stop-color="#5F95AF"/><stop offset="0.185897" stop-color="#6196B0"/><stop offset="0.192308" stop-color="#6297B1"/><stop offset="0.198718" stop-color="#6498B2"/><stop offset="0.205128" stop-color="#6599B2"/><stop offset="0.211538" stop-color="#679AB3"/><stop offset="0.217949" stop-color="#689BB4"/><stop offset="0.224359" stop-color="#6A9CB5"/><stop offset="0.230769" stop-color="#6C9DB5"/><stop offset="0.237179" stop-color="#6D9EB6"/><stop offset="0.24359" stop-color="#6E9EB7"/><stop offset="0.25" stop-color="#709FB8"/><stop offset="0.25641" stop-color="#71A0B8"/><stop offset="0.262821" stop-color="#73A1B9"/><stop offset="0.269231" stop-color="#74A2BA"/><stop offset="0.275641" stop-color="#76A3BA"/><stop offset="0.282051" stop-color="#77A4BB"/><stop offset="0.288462" stop-color="#79A4BC"/><stop offset="0.294872" stop-color="#7AA5BD"/><stop offset="0.301282" stop-color="#7BA6BD"/><stop offset="0.307692" stop-color="#7DA7BE"/><stop offset="0.314103" stop-color="#7EA8BF"/><stop offset="0.320513" stop-color="#7FA8BF"/><stop offset="0.326923" stop-color="#81A9C0"/><stop offset="0.333333" stop-color="#82AAC0"/><stop offset="0.339744" stop-color="#83ABC1"/><stop offset="0.346154" stop-color="#85ACC2"/><stop offset="0.352564" stop-color="#86ACC2"/><stop offset="0.358974" stop-color="#87ADC3"/><stop offset="0.365385" stop-color="#89AEC4"/><stop offset="0.371795" stop-color="#8AAFC4"/><stop offset="0.378205" stop-color="#8BAFC5"/><stop offset="0.384615" stop-color="#8CB0C6"/><stop offset="0.391026" stop-color="#8EB1C6"/><stop offset="0.397436" stop-color="#8FB2C7"/><stop offset="0.403846" stop-color="#90B2C7"/><stop offset="0.410256" stop-color="#91B3C8"/><stop offset="0.416667" stop-color="#92B4C8"/><stop offset="0.423077" stop-color="#94B4C9"/><stop offset="0.429487" stop-color="#95B5CA"/><stop offset="0.435897" stop-color="#96B6CA"/><stop offset="0.442308" stop-color="#97B6CB"/><stop offset="0.448718" stop-color="#98B7CB"/><stop offset="0.455128" stop-color="#99B8CC"/><stop offset="0.461538" stop-color="#9AB8CC"/><stop offset="0.467949" stop-color="#9BB9CD"/><stop offset="0.474359" stop-color="#9CBACD"/><stop offset="0.480769" stop-color="#9EBACE"/><stop offset="0.487179" stop-color="#9FBBCE"/><stop offset="0.49359" stop-color="#A0BCCF"/><stop offset="0.5" stop-color="#A1BCD0"/><stop offset="0.50641" stop-color="#A2BDD0"/><stop offset="0.512821" stop-color="#A3BDD1"/><stop offset="0.519231" stop-color="#A4BED1"/><stop offset="0.525641" stop-color="#A5BFD1"/><stop offset="0.532051" stop-color="#A6BFD2"/><stop offset="0.538462" stop-color="#A7C0D2"/><stop offset="0.544872" stop-color="#A8C0D3"/><stop offset="0.551282" stop-color="#A9C1D3"/><stop offset="0.557692" stop-color="#A9C1D4"/><stop offset="0.564103" stop-color="#AAC2D4"/><stop offset="0.570513" stop-color="#ABC2D5"/><stop offset="0.576923" stop-color="#ACC3D5"/><stop offset="0.583333" stop-color="#ADC3D6"/><stop offset="0.589744" stop-color="#AEC4D6"/><stop offset="0.596154" stop-color="#AFC5D6"/><stop offset="0.602564" stop-color="#B0C5D7"/><stop offset="0.608974" stop-color="#B1C6D7"/><stop offset="0.615385" stop-color="#B1C6D8"/><stop offset="0.621795" stop-color="#B2C6D8"/><stop offset="0.628205" stop-color="#B3C7D8"/><stop offset="0.634615" stop-color="#B4C7D9"/><stop offset="0.641026" stop-color="#B5C8D9"/><stop offset="0.647436" stop-color="#B5C8DA"/><stop offset="0.653846" stop-color="#B6C9DA"/><stop offset="0.660256" stop-color="#B7C9DA"/><stop offset="0.666667" stop-color="#B7CADB"/><stop offset="0.673077" stop-color="#B8CADB"/><stop offset="0.679487" stop-color="#B9CADB"/><stop offset="0.685897" stop-color="#BACBDC"/><stop offset="0.692308" stop-color="#BACBDC"/><stop offset="0.698718" stop-color="#BBCCDC"/><stop offset="0.705128" stop-color="#BCCCDD"/><stop offset="0.711538" stop-color="#BCCCDD"/><stop offset="0.717949" stop-color="#BDCDDD"/><stop offset="0.724359" stop-color="#BDCDDE"/><stop offset="0.730769" stop-color="#BECEDE"/><stop offset="0.737179" stop-color="#BFCEDE"/><stop offset="0.74359" stop-color="#BFCEDE"/><stop offset="0.75" stop-color="#C0CFDF"/><stop offset="0.75641" stop-color="#C0CFDF"/><stop offset="0.762821" stop-color="#C1CFDF"/><stop offset="0.769231" stop-color="#C1D0E0"/><stop offset="0.775641" stop-color="#C2D0E0"/><stop offset="0.782051" stop-color="#C2D0E0"/><stop offset="0.788462" stop-color="#C3D0E0"/><stop offset="0.794872" stop-color="#C3D1E1"/><stop offset="0.801282" stop-color="#C4D1E1"/><stop offset="0.807692" stop-color="#C4D1E1"/><stop offset="0.814103" stop-color="#C5D2E1"/><stop offset="0.820513" stop-color="#C5D2E1"/><stop offset="0.826923" stop-color="#C6D2E2"/><stop offset="0.833333" stop-color="#C6D2E2"/><stop offset="0.839744" stop-color="#C6D2E2"/><stop offset="0.846154" stop-color="#C7D3E2"/><stop offset="0.852564" stop-color="#C7D3E2"/><stop offset="0.858974" stop-color="#C8D3E3"/><stop offset="0.865385" stop-color="#C8D3E3"/><stop offset="0.871795" stop-color="#C8D4E3"/><stop offset="0.878205" stop-color="#C8D4E3"/><stop offset="0.884615" stop-color="#C9D4E3"/><stop offset="0.891026" stop-color="#C9D4E3"/><stop offset="0.897436" stop-color="#C9D4E3"/><stop offset="0.903846" stop-color="#CAD4E4"/><stop offset="0.910256" stop-color="#CAD4E4"/><stop offset="0.916667" stop-color="#CAD5E4"/><stop offset="0.923077" stop-color="#CAD5E4"/><stop offset="0.929487" stop-color="#CAD5E4"/><stop offset="0.935897" stop-color="#CBD5E4"/><stop offset="0.942308" stop-color="#CBD5E4"/><stop offset="0.948718" stop-color="#CBD5E4"/><stop offset="0.955128" stop-color="#CBD5E4"/><stop offset="0.961538" stop-color="#CBD5E4"/><stop offset="0.967949" stop-color="#CBD5E4"/><stop offset="0.974359" stop-color="#CBD5E4"/><stop offset="0.980769" stop-color="#CBD5E4"/><stop offset="0.987179" stop-color="#CBD5E4"/><stop offset="0.99359" stop-color="#CBD5E4"/><stop offset="1" stop-color="#CCD6E5"/></linearGradient><linearGradient x1="107" y1="82.5" x2="271" y2="82.5" gradientUnits="userSpaceOnUse" spreadMethod="reflect" id="fill10"><stop offset="0" stop-color="#2F7998"/><stop offset="0.05" stop-color="#2F7998"/><stop offset="1" stop-color="#D0E7F0"/></linearGradient></defs><g clip-path="url(#clip0)"><rect x="0" y="0" width="378" height="378" fill="#FFFFFF"/><path d="M145.635 213.17C118.702 205.902 88.6844 217.747 62.7624 207.416 62.1476 207.108 61.4628 206.967 60.7766 207.007 60.2425 207.153 59.7464 207.415 59.3227 207.773L32 227.811C37.8511 227.134 57.0354 227.954 62.2837 228.185 72.5083 228.66 82.7151 229.491 92.9043 230.679 113.401 233.062 133.71 236.865 153.684 242.061 164.89 244.964 175.83 249.186 187 252 180.383 233.026 164.927 218.517 145.635 213.17Z" fill="#CCD6E5" fill-rule="evenodd"/><path d="M154.602 214.331C139.593 208.15 123.047 206.732 106.784 206.4 95.7305 206.172 83.7407 206.102 75 199.396 79.106 198.921 83.104 197.774 86.8309 196 88.3848 198.504 91.4043 199.729 94.2649 200.604 108.391 204.736 123.595 202.705 138.092 205.279 157.16 208.757 173.929 219.897 184.427 236.058 186.621 239.393 188.172 243.103 189 247 185.843 240.504 181.737 234.504 176.816 229.195 170.533 222.764 162.968 217.702 154.602 214.331Z" fill="#CCD6E5" fill-rule="evenodd"/><path d="M143.608 200.555C136.457 199.018 128.638 198.788 121.363 198.046 117.786 197.757 114.251 197.076 110.821 196.014 107.415 194.953 104.364 192.973 102 190.29 104.944 190.599 107.917 190.155 110.645 189 111.045 190.295 111.861 191.419 112.964 192.198 115.908 194.439 119.364 195.903 123.015 196.456 126.529 197.11 130.307 197.233 133.962 197.587 143.642 198.239 153.008 201.305 161.215 206.509 164.34 208.763 167.278 211.268 170 214 162.42 207.429 153.361 202.814 143.608 200.555Z" fill="#CCD6E5" fill-rule="evenodd"/><path d="M189 258C189 258 124.896 233.23 28.1223 233L19 239.599C19 239.599 100.005 231.903 189 258Z" fill="url(#fill1)" fill-rule="evenodd"/><path d="M232.417 213.17C259.338 205.902 289.342 217.747 315.234 207.416 315.849 207.108 316.533 206.967 317.219 207.007 317.752 207.153 318.249 207.415 318.672 207.773L346 227.847C340.152 227.17 320.976 227.989 315.73 228.221 305.499 228.708 295.296 229.539 285.124 230.715 264.613 233.084 244.291 236.875 224.3 242.061 213.1 244.964 202.165 249.186 191 252 197.628 233.009 213.107 218.496 232.417 213.17Z" fill="#E7EEF9" fill-rule="evenodd"/><path d="M223.7 214.713C238.84 208.416 255.531 206.989 271.937 206.632 283.088 206.4 295.183 206.329 304 199.496 299.844 199.005 295.799 197.823 292.03 196 290.48 198.587 287.452 199.871 284.548 200.727 270.316 205.026 254.979 202.868 240.372 205.49 221.131 209.03 204.207 220.38 193.614 236.851 191.4 240.249 189.836 244.03 189 248 192.185 241.381 196.326 235.268 201.291 229.858 207.632 223.31 215.263 218.152 223.7 214.713Z" fill="#E7EEF9" fill-rule="evenodd"/><path d="M234.769 200.588C242.027 199.046 249.964 198.816 257.347 198.072 260.978 197.78 264.566 197.097 268.047 196.034 271.504 194.969 274.6 192.983 277 190.293 274.013 190.603 270.994 190.158 268.226 189 267.824 190.296 267.002 191.423 265.889 192.207 262.904 194.458 259.396 195.926 255.688 196.477 252.032 197.133 248.287 197.257 244.578 197.611 234.762 198.242 225.256 201.286 216.917 206.47 213.746 208.738 210.764 211.256 208 214 215.699 207.442 224.884 202.839 234.769 200.588Z" fill="#E7EEF9" fill-rule="evenodd"/><path d="M189 259C189 259 253.508 234.23 350.891 234L360 240.599C360 240.599 278.556 232.903 189 259Z" fill="url(#fill2)" fill-rule="evenodd"/><path d="M64 244C64 244 133.872 245.603 189 262.193L189 270C189 270 159.387 254.839 64 244Z" fill="url(#fill3)" fill-rule="evenodd"/><path d="M314 244C314 244 244.128 245.603 189 262.193L189 270C189 270 218.613 254.839 314 244Z" fill="url(#fill4)" fill-rule="evenodd"/><path d="M262.754 120.511C262.595 120.909 262.143 121.103 261.744 120.945 261.397 120.808 261.197 120.445 261.267 120.079 266.587 93.5152 254.15 63.5374 230.796 49.6214 221.371 43.7248 210.553 40.4009 199.43 39.9829 187.709 39.5829 176.115 42.5095 166 48.4217 171.546 41.4424 177.786 35.0392 184.625 29.3094 185.169 28.85 185.727 28.3908 186.277 27.9384 187.358 27.7944 188.432 27.671 189.519 27.575 207.828 25.0934 224.932 30.8244 238.388 41.2854 243.066 44.9419 247.295 49.1368 250.984 53.7825 252.429 55.6106 253.787 57.4911 255.059 59.4243 266.76 77.2615 270.91 99.8701 262.754 120.511Z" fill="url(#fill5)" fill-rule="evenodd"/><path d="M235.351 127C235.406 123.087 234.99 119.181 234.11 115.365L234.11 115.29C231.627 103.284 224.929 92.5459 215.209 84.9906 205.981 77.8433 194.506 74.1633 182.811 74.6013 180.954 74.7744 179.111 75.0762 177.296 75.5047 175.821 75.5799 174.353 75.7306 172.898 75.9427 169.162 76.4807 165.503 77.4593 162 78.8583 196.259 52.043 246.78 83.8751 235.351 127Z" fill="url(#fill6)" fill-rule="evenodd"/><path d="M250.317 125.296C245.74 132.976 239.647 139.646 232.409 144.901 232.193 145.064 231.887 145.022 231.723 144.806 231.614 144.661 231.594 144.467 231.672 144.303 233.962 138.987 235.177 133.27 235.246 127.483 246.666 84.1443 196.186 52.1424 161.954 79.0813 151.926 83.1262 143.358 90.6727 138.929 101.48 138.639 102.106 138.364 102.732 138.102 103.372 137.204 97.8752 136.854 92.303 137.055 86.7377 137.744 73.6673 141.45 60.4042 148.193 49.3631 148.225 49.3033 148.262 49.2459 148.303 49.1911 152.461 42.2772 158.044 36.3257 164.682 31.7318L164.682 31.7318C165.136 31.5186 165.598 31.3053 166.059 31.1058L166.059 31.1058C223.703 4.50395 283.943 70.152 250.317 125.296Z" fill="url(#fill7)" fill-rule="evenodd"/><path d="M212.887 90.4644C213.059 90.6744 213.032 90.9872 212.825 91.1623 212.644 91.3159 212.381 91.3159 212.201 91.1623 199.319 79.646 178.95 76.9031 163.941 85.4182 157.73 88.7516 152.488 93.6854 148.74 99.7262 144.833 106.106 142.786 113.484 142.838 121 140.758 115.67 139.213 110.14 138.227 104.493L138 103.139C138.261 102.49 138.535 101.855 138.824 101.22 143.236 90.255 151.774 82.5984 161.766 78.4944 165.245 77.0698 168.878 76.0718 172.589 75.5211 174.037 75.3047 175.498 75.1512 176.967 75.0744 190.432 74.3206 204.158 79.2831 212.887 90.4644Z" fill="url(#fill8)" fill-rule="evenodd"/><path d="M230.858 188.856C200.897 169.866 165.734 195.896 128.062 149.377 127.977 149.288 127.98 149.148 128.067 149.063 128.145 148.987 128.266 148.979 128.353 149.043 163.933 170.651 200.69 159.458 231.717 187.717 232.031 187.954 232.093 188.402 231.856 188.717 231.619 189.031 231.172 189.093 230.858 188.856Z" fill="url(#fill9)" fill-rule="evenodd"/><path d="M270.095 44.5499C246.178 12.3548 195.629 6.05749 164.429 31.3773L164.429 31.3773C157.772 35.976 152.173 41.9324 148.004 48.8513 147.963 48.906 147.926 48.9635 147.893 49.0234 141.128 60.035 137.417 73.3521 136.719 86.4147 136.517 91.9824 136.868 97.5571 137.769 103.056L137.997 104.391C138.99 109.959 140.546 115.412 142.641 120.668 148.86 136.311 159.917 149.958 175.368 158.162 178.611 160.027 181.982 161.66 185.457 163.049 185.714 163.135 185.851 163.413 185.764 163.668 185.686 163.899 185.449 164.037 185.209 163.991 162.018 160.55 129.014 155.43 118.87 133.971 118.87 133.971 118.87 133.971 118.87 133.971 118.289 132.829 117.677 131.695 117.032 130.571L117.032 130.571C116.548 129.626 116.087 128.677 115.65 127.722 115.539 127.481 115.421 127.24 115.311 126.992 115.31 126.979 115.31 126.965 115.311 126.951L115.311 126.951C115.145 126.501 114.956 126.061 114.744 125.63L114.585 125.299 114.585 125.299C114.413 124.873 114.233 124.46 114.06 124.04 113.887 123.62 113.735 123.235 113.576 122.835 113.328 122.216 113.093 121.597 112.885 120.97 112.678 120.344 112.367 119.56 112.125 118.844L112.125 118.844C110.146 112.912 108.718 106.812 107.862 100.62 104.379 75.5544 111.718 53.6551 125.117 36.7868 145.046 11.7353 178.381-2.13929 209.657 1.60467 213.711 2.08385 217.724 2.86605 221.66 3.94466 241.009 9.25774 258.782 22.1 270.924 44.0269 271.069 44.255 271.001 44.5568 270.772 44.7013 270.543 44.8458 270.24 44.778 270.095 44.5499Z" fill="url(#fill10)" fill-rule="evenodd"/><text fill="#2F7998" font-family="NK192,NK192_MSFontService,sans-serif" font-weight="700" font-size="80" transform="translate(35.3133 354)">PACIFIC</text></g></svg>