<svg width="756" height="378" xmlns="http://www.w3.org/2000/svg" xmlns:xlink="http://www.w3.org/1999/xlink" overflow="hidden"><defs><clipPath id="clip0"><rect x="0" y="0" width="756" height="378"/></clipPath><linearGradient x1="85" y1="286.937" x2="85" y2="311.931" gradientUnits="userSpaceOnUse" spreadMethod="reflect" id="fill1"><stop offset="0" stop-color="#D9E5EB"/><stop offset="0.125" stop-color="#D8E5EC"/><stop offset="0.25" stop-color="#D8E5ED"/><stop offset="0.375" stop-color="#D7E6ED"/><stop offset="0.5" stop-color="#D6E6EE"/><stop offset="0.625" stop-color="#D5E6EF"/><stop offset="0.75" stop-color="#D3E6EF"/><stop offset="0.875" stop-color="#D1E6EF"/><stop offset="1" stop-color="#D0E7F0"/></linearGradient><linearGradient x1="255.5" y1="286.937" x2="255.5" y2="311.931" gradientUnits="userSpaceOnUse" spreadMethod="reflect" id="fill2"><stop offset="0" stop-color="#D9E5EB"/><stop offset="0.125" stop-color="#D8E5EC"/><stop offset="0.25" stop-color="#D8E5ED"/><stop offset="0.375" stop-color="#D7E6ED"/><stop offset="0.5" stop-color="#D6E6EE"/><stop offset="0.625" stop-color="#D5E6EF"/><stop offset="0.75" stop-color="#D3E6EF"/><stop offset="0.875" stop-color="#D1E6EF"/><stop offset="1" stop-color="#D0E7F0"/></linearGradient><linearGradient x1="108" y1="296.934" x2="108" y2="323.929" gradientUnits="userSpaceOnUse" spreadMethod="reflect" id="fill3"><stop offset="0" stop-color="#409EC4"/><stop offset="0.0232558" stop-color="#3F9DC3"/><stop offset="0.0465116" stop-color="#3F9DC3"/><stop offset="0.0697674" stop-color="#3F9DC3"/><stop offset="0.0930233" stop-color="#3F9DC3"/><stop offset="0.116279" stop-color="#3F9DC3"/><stop offset="0.139535" stop-color="#3F9DC2"/><stop offset="0.162791" stop-color="#3F9CC2"/><stop offset="0.186047" stop-color="#3F9CC2"/><stop offset="0.209302" stop-color="#3F9CC1"/><stop offset="0.232558" stop-color="#3E9BC1"/><stop offset="0.255814" stop-color="#3E9BC0"/><stop offset="0.27907" stop-color="#3E9ABF"/><stop offset="0.302326" stop-color="#3E9ABF"/><stop offset="0.325581" stop-color="#3D99BE"/><stop offset="0.348837" stop-color="#3D98BD"/><stop offset="0.372093" stop-color="#3D98BD"/><stop offset="0.395349" stop-color="#3D97BC"/><stop offset="0.418605" stop-color="#3C96BB"/><stop offset="0.44186" stop-color="#3C95BA"/><stop offset="0.465116" stop-color="#3B95B9"/><stop offset="0.488372" stop-color="#3B94B8"/><stop offset="0.511628" stop-color="#3B93B7"/><stop offset="0.534884" stop-color="#3A92B6"/><stop offset="0.55814" stop-color="#3A91B5"/><stop offset="0.581395" stop-color="#3990B4"/><stop offset="0.604651" stop-color="#398FB2"/><stop offset="0.627907" stop-color="#388EB1"/><stop offset="0.651163" stop-color="#388DB0"/><stop offset="0.674419" stop-color="#378CAE"/><stop offset="0.697674" stop-color="#378BAD"/><stop offset="0.72093" stop-color="#3689AC"/><stop offset="0.744186" stop-color="#3688AA"/><stop offset="0.767442" stop-color="#3587A9"/><stop offset="0.790698" stop-color="#3586A7"/><stop offset="0.813953" stop-color="#3484A6"/><stop offset="0.837209" stop-color="#3383A4"/><stop offset="0.860465" stop-color="#3382A2"/><stop offset="0.883721" stop-color="#3280A1"/><stop offset="0.906977" stop-color="#317F9F"/><stop offset="0.930233" stop-color="#317D9D"/><stop offset="0.953488" stop-color="#307C9B"/><stop offset="0.976744" stop-color="#2F7A99"/><stop offset="1" stop-color="#2F7998"/></linearGradient><linearGradient x1="232.5" y1="296.934" x2="232.5" y2="323.929" gradientUnits="userSpaceOnUse" spreadMethod="reflect" id="fill4"><stop offset="0" stop-color="#409EC4"/><stop offset="0.0232558" stop-color="#3F9DC3"/><stop offset="0.0465116" stop-color="#3F9DC3"/><stop offset="0.0697674" stop-color="#3F9DC3"/><stop offset="0.0930233" stop-color="#3F9DC3"/><stop offset="0.116279" stop-color="#3F9DC3"/><stop offset="0.139535" stop-color="#3F9DC2"/><stop offset="0.162791" stop-color="#3F9CC2"/><stop offset="0.186047" stop-color="#3F9CC2"/><stop offset="0.209302" stop-color="#3F9CC1"/><stop offset="0.232558" stop-color="#3E9BC1"/><stop offset="0.255814" stop-color="#3E9BC0"/><stop offset="0.27907" stop-color="#3E9ABF"/><stop offset="0.302326" stop-color="#3E9ABF"/><stop offset="0.325581" stop-color="#3D99BE"/><stop offset="0.348837" stop-color="#3D98BD"/><stop offset="0.372093" stop-color="#3D98BD"/><stop offset="0.395349" stop-color="#3D97BC"/><stop offset="0.418605" stop-color="#3C96BB"/><stop offset="0.44186" stop-color="#3C95BA"/><stop offset="0.465116" stop-color="#3B95B9"/><stop offset="0.488372" stop-color="#3B94B8"/><stop offset="0.511628" stop-color="#3B93B7"/><stop offset="0.534884" stop-color="#3A92B6"/><stop offset="0.55814" stop-color="#3A91B5"/><stop offset="0.581395" stop-color="#3990B4"/><stop offset="0.604651" stop-color="#398FB2"/><stop offset="0.627907" stop-color="#388EB1"/><stop offset="0.651163" stop-color="#388DB0"/><stop offset="0.674419" stop-color="#378CAE"/><stop offset="0.697674" stop-color="#378BAD"/><stop offset="0.72093" stop-color="#3689AC"/><stop offset="0.744186" stop-color="#3688AA"/><stop offset="0.767442" stop-color="#3587A9"/><stop offset="0.790698" stop-color="#3586A7"/><stop offset="0.813953" stop-color="#3484A6"/><stop offset="0.837209" stop-color="#3383A4"/><stop offset="0.860465" stop-color="#3382A2"/><stop offset="0.883721" stop-color="#3280A1"/><stop offset="0.906977" stop-color="#317F9F"/><stop offset="0.930233" stop-color="#317D9D"/><stop offset="0.953488" stop-color="#307C9B"/><stop offset="0.976744" stop-color="#2F7A99"/><stop offset="1" stop-color="#2F7998"/></linearGradient><linearGradient x1="197.5" y1="79.9823" x2="197.5" y2="173.962" gradientUnits="userSpaceOnUse" spreadMethod="reflect" id="fill5"><stop offset="0" stop-color="#72CED0"/><stop offset="0.0116279" stop-color="#73CED0"/><stop offset="0.0232558" stop-color="#75CFD1"/><stop offset="0.0348837" stop-color="#77CFD1"/><stop offset="0.0465116" stop-color="#79D0D2"/><stop offset="0.0581395" stop-color="#7BD1D3"/><stop offset="0.0697674" stop-color="#7DD1D3"/><stop offset="0.0813954" stop-color="#7ED2D4"/><stop offset="0.0930233" stop-color="#80D3D4"/><stop offset="0.104651" stop-color="#82D3D5"/><stop offset="0.116279" stop-color="#83D4D5"/><stop offset="0.127907" stop-color="#85D4D6"/><stop offset="0.139535" stop-color="#87D5D7"/><stop offset="0.151163" stop-color="#89D5D7"/><stop offset="0.162791" stop-color="#8AD6D8"/><stop offset="0.174419" stop-color="#8CD7D8"/><stop offset="0.186047" stop-color="#8DD7D9"/><stop offset="0.197674" stop-color="#8FD8D9"/><stop offset="0.209302" stop-color="#90D8DA"/><stop offset="0.22093" stop-color="#92D9DA"/><stop offset="0.232558" stop-color="#94D9DB"/><stop offset="0.244186" stop-color="#95DADB"/><stop offset="0.255814" stop-color="#97DADC"/><stop offset="0.267442" stop-color="#98DBDC"/><stop offset="0.27907" stop-color="#99DBDD"/><stop offset="0.290698" stop-color="#9BDCDD"/><stop offset="0.302326" stop-color="#9CDCDE"/><stop offset="0.313953" stop-color="#9EDDDE"/><stop offset="0.325581" stop-color="#9FDDDF"/><stop offset="0.337209" stop-color="#A0DEDF"/><stop offset="0.348837" stop-color="#A2DEE0"/><stop offset="0.360465" stop-color="#A3DFE0"/><stop offset="0.372093" stop-color="#A4DFE0"/><stop offset="0.383721" stop-color="#A5DFE1"/><stop offset="0.395349" stop-color="#A7E0E1"/><stop offset="0.406977" stop-color="#A8E0E2"/><stop offset="0.418605" stop-color="#A9E1E2"/><stop offset="0.430233" stop-color="#AAE1E2"/><stop offset="0.44186" stop-color="#ABE1E3"/><stop offset="0.453488" stop-color="#ACE2E3"/><stop offset="0.465116" stop-color="#AEE2E4"/><stop offset="0.476744" stop-color="#AFE3E4"/><stop offset="0.488372" stop-color="#B0E3E4"/><stop offset="0.5" stop-color="#B1E3E5"/><stop offset="0.511628" stop-color="#B2E4E5"/><stop offset="0.523256" stop-color="#B3E4E5"/><stop offset="0.534884" stop-color="#B4E4E6"/><stop offset="0.546512" stop-color="#B5E5E6"/><stop offset="0.55814" stop-color="#B6E5E6"/><stop offset="0.569767" stop-color="#B7E5E7"/><stop offset="0.581395" stop-color="#B8E6E7"/><stop offset="0.593023" stop-color="#B8E6E7"/><stop offset="0.604651" stop-color="#B9E6E7"/><stop offset="0.616279" stop-color="#BAE7E8"/><stop offset="0.627907" stop-color="#BBE7E8"/><stop offset="0.639535" stop-color="#BCE7E8"/><stop offset="0.651163" stop-color="#BCE7E8"/><stop offset="0.662791" stop-color="#BDE8E9"/><stop offset="0.674419" stop-color="#BEE8E9"/><stop offset="0.686047" stop-color="#BFE8E9"/><stop offset="0.697674" stop-color="#BFE8E9"/><stop offset="0.709302" stop-color="#C0E9EA"/><stop offset="0.72093" stop-color="#C1E9EA"/><stop offset="0.732558" stop-color="#C1E9EA"/><stop offset="0.744186" stop-color="#C2E9EA"/><stop offset="0.755814" stop-color="#C2E9EA"/><stop offset="0.767442" stop-color="#C3EAEB"/><stop offset="0.77907" stop-color="#C3EAEB"/><stop offset="0.790698" stop-color="#C4EAEB"/><stop offset="0.802326" stop-color="#C4EAEB"/><stop offset="0.813953" stop-color="#C5EAEB"/><stop offset="0.825581" stop-color="#C5EAEB"/><stop offset="0.837209" stop-color="#C6EBEC"/><stop offset="0.848837" stop-color="#C6EBEC"/><stop offset="0.860465" stop-color="#C6EBEC"/><stop offset="0.872093" stop-color="#C7EBEC"/><stop offset="0.883721" stop-color="#C7EBEC"/><stop offset="0.895349" stop-color="#C7EBEC"/><stop offset="0.906977" stop-color="#C7EBEC"/><stop offset="0.918605" stop-color="#C8EBEC"/><stop offset="0.930233" stop-color="#C8EBEC"/><stop offset="0.94186" stop-color="#C8EBEC"/><stop offset="0.953488" stop-color="#C8EBEC"/><stop offset="0.965116" stop-color="#C8EBEC"/><stop offset="0.976744" stop-color="#C8EBEC"/><stop offset="0.988372" stop-color="#C8EBEC"/><stop offset="1" stop-color="#C9ECED"/></linearGradient><linearGradient x1="143" y1="151.467" x2="218" y2="151.467" gradientUnits="userSpaceOnUse" spreadMethod="reflect" id="fill6"><stop offset="0" stop-color="#A1D0DB"/><stop offset="0.0243902" stop-color="#A2D0DB"/><stop offset="0.0487805" stop-color="#A4D1DC"/><stop offset="0.0731707" stop-color="#A6D2DD"/><stop offset="0.097561" stop-color="#A8D3DD"/><stop offset="0.121951" stop-color="#AAD4DE"/><stop offset="0.146341" stop-color="#ABD5DF"/><stop offset="0.170732" stop-color="#ADD6DF"/><stop offset="0.195122" stop-color="#AFD7E0"/><stop offset="0.219512" stop-color="#B0D7E0"/><stop offset="0.243902" stop-color="#B2D8E1"/><stop offset="0.268293" stop-color="#B3D9E2"/><stop offset="0.292683" stop-color="#B5DAE2"/><stop offset="0.317073" stop-color="#B6DAE3"/><stop offset="0.341463" stop-color="#B7DBE3"/><stop offset="0.365854" stop-color="#B9DCE4"/><stop offset="0.390244" stop-color="#BADCE4"/><stop offset="0.414634" stop-color="#BBDDE5"/><stop offset="0.439024" stop-color="#BCDDE5"/><stop offset="0.463415" stop-color="#BDDEE6"/><stop offset="0.487805" stop-color="#BFDFE6"/><stop offset="0.512195" stop-color="#C0DFE6"/><stop offset="0.536585" stop-color="#C1E0E7"/><stop offset="0.560976" stop-color="#C2E0E7"/><stop offset="0.585366" stop-color="#C2E0E7"/><stop offset="0.609756" stop-color="#C3E1E8"/><stop offset="0.634146" stop-color="#C4E1E8"/><stop offset="0.658537" stop-color="#C5E2E8"/><stop offset="0.682927" stop-color="#C6E2E9"/><stop offset="0.707317" stop-color="#C6E2E9"/><stop offset="0.731707" stop-color="#C7E3E9"/><stop offset="0.756098" stop-color="#C8E3E9"/><stop offset="0.780488" stop-color="#C8E3EA"/><stop offset="0.804878" stop-color="#C9E4EA"/><stop offset="0.829268" stop-color="#C9E4EA"/><stop offset="0.853659" stop-color="#C9E4EA"/><stop offset="0.878049" stop-color="#CAE4EA"/><stop offset="0.902439" stop-color="#CAE4EA"/><stop offset="0.926829" stop-color="#CAE4EA"/><stop offset="0.951219" stop-color="#CAE4EA"/><stop offset="0.97561" stop-color="#CAE4EA"/><stop offset="1" stop-color="#CBE5EB"/></linearGradient><linearGradient x1="129.233" y1="69.7141" x2="229.768" y2="206.225" gradientUnits="userSpaceOnUse" spreadMethod="reflect" id="fill7"><stop offset="0" stop-color="#90CCD8"/><stop offset="0.0625" stop-color="#91CCD8"/><stop offset="0.125" stop-color="#93CCD8"/><stop offset="0.1875" stop-color="#95CDD8"/><stop offset="0.25" stop-color="#97CDD9"/><stop offset="0.3125" stop-color="#98CED9"/><stop offset="0.375" stop-color="#99CED9"/><stop offset="0.4375" stop-color="#9BCED9"/><stop offset="0.5" stop-color="#9CCEDA"/><stop offset="0.5625" stop-color="#9DCFDA"/><stop offset="0.625" stop-color="#9ECFDA"/><stop offset="0.6875" stop-color="#9FCFDA"/><stop offset="0.75" stop-color="#9FCFDA"/><stop offset="0.8125" stop-color="#A0CFDA"/><stop offset="0.875" stop-color="#A0CFDA"/><stop offset="0.9375" stop-color="#A0CFDA"/><stop offset="1" stop-color="#A1D0DB"/></linearGradient><linearGradient x1="131.017" y1="183.513" x2="181.983" y2="119.42" gradientUnits="userSpaceOnUse" spreadMethod="reflect" id="fill8"><stop offset="0" stop-color="#D6F1F2"/><stop offset="0.0588235" stop-color="#D7F1F2"/><stop offset="0.117647" stop-color="#D9F2F3"/><stop offset="0.176471" stop-color="#DBF2F3"/><stop offset="0.235294" stop-color="#DDF3F4"/><stop offset="0.294118" stop-color="#DEF3F4"/><stop offset="0.352941" stop-color="#E0F4F5"/><stop offset="0.411765" stop-color="#E1F4F5"/><stop offset="0.470588" stop-color="#E2F5F6"/><stop offset="0.529412" stop-color="#E3F5F6"/><stop offset="0.588235" stop-color="#E4F5F6"/><stop offset="0.647059" stop-color="#E5F6F7"/><stop offset="0.705882" stop-color="#E6F6F7"/><stop offset="0.764706" stop-color="#E6F6F7"/><stop offset="0.823529" stop-color="#E7F6F7"/><stop offset="0.882353" stop-color="#E7F6F7"/><stop offset="0.941176" stop-color="#E7F6F7"/><stop offset="1" stop-color="#E8F7F8"/></linearGradient><linearGradient x1="110" y1="222.451" x2="213" y2="222.451" gradientUnits="userSpaceOnUse" spreadMethod="reflect" id="fill9"><stop offset="0" stop-color="#2F7998"/><stop offset="0.00641026" stop-color="#307A98"/><stop offset="0.0128205" stop-color="#327B99"/><stop offset="0.0192308" stop-color="#347C9A"/><stop offset="0.025641" stop-color="#367D9B"/><stop offset="0.0320513" stop-color="#387E9C"/><stop offset="0.0384615" stop-color="#3A7F9D"/><stop offset="0.0448718" stop-color="#3B809E"/><stop offset="0.0512821" stop-color="#3D819F"/><stop offset="0.0576923" stop-color="#3F82A0"/><stop offset="0.0641026" stop-color="#4183A0"/><stop offset="0.0705128" stop-color="#4384A1"/><stop offset="0.0769231" stop-color="#4485A2"/><stop offset="0.0833333" stop-color="#4686A3"/><stop offset="0.0897436" stop-color="#4888A4"/><stop offset="0.0961538" stop-color="#4A89A5"/><stop offset="0.102564" stop-color="#4B8AA6"/><stop offset="0.108974" stop-color="#4D8BA6"/><stop offset="0.115385" stop-color="#4F8CA7"/><stop offset="0.121795" stop-color="#508DA8"/><stop offset="0.128205" stop-color="#528EA9"/><stop offset="0.134615" stop-color="#548FAA"/><stop offset="0.141026" stop-color="#5590AB"/><stop offset="0.147436" stop-color="#5791AB"/><stop offset="0.153846" stop-color="#5992AC"/><stop offset="0.160256" stop-color="#5A92AD"/><stop offset="0.166667" stop-color="#5C93AE"/><stop offset="0.173077" stop-color="#5E94AF"/><stop offset="0.179487" stop-color="#5F95AF"/><stop offset="0.185897" stop-color="#6196B0"/><stop offset="0.192308" stop-color="#6297B1"/><stop offset="0.198718" stop-color="#6498B2"/><stop offset="0.205128" stop-color="#6599B2"/><stop offset="0.211538" stop-color="#679AB3"/><stop offset="0.217949" stop-color="#689BB4"/><stop offset="0.224359" stop-color="#6A9CB5"/><stop offset="0.230769" stop-color="#6C9DB5"/><stop offset="0.237179" stop-color="#6D9EB6"/><stop offset="0.24359" stop-color="#6E9EB7"/><stop offset="0.25" stop-color="#709FB8"/><stop offset="0.25641" stop-color="#71A0B8"/><stop offset="0.262821" stop-color="#73A1B9"/><stop offset="0.269231" stop-color="#74A2BA"/><stop offset="0.275641" stop-color="#76A3BA"/><stop offset="0.282051" stop-color="#77A4BB"/><stop offset="0.288462" stop-color="#79A4BC"/><stop offset="0.294872" stop-color="#7AA5BD"/><stop offset="0.301282" stop-color="#7BA6BD"/><stop offset="0.307692" stop-color="#7DA7BE"/><stop offset="0.314103" stop-color="#7EA8BF"/><stop offset="0.320513" stop-color="#7FA8BF"/><stop offset="0.326923" stop-color="#81A9C0"/><stop offset="0.333333" stop-color="#82AAC0"/><stop offset="0.339744" stop-color="#83ABC1"/><stop offset="0.346154" stop-color="#85ACC2"/><stop offset="0.352564" stop-color="#86ACC2"/><stop offset="0.358974" stop-color="#87ADC3"/><stop offset="0.365385" stop-color="#89AEC4"/><stop offset="0.371795" stop-color="#8AAFC4"/><stop offset="0.378205" stop-color="#8BAFC5"/><stop offset="0.384615" stop-color="#8CB0C6"/><stop offset="0.391026" stop-color="#8EB1C6"/><stop offset="0.397436" stop-color="#8FB2C7"/><stop offset="0.403846" stop-color="#90B2C7"/><stop offset="0.410256" stop-color="#91B3C8"/><stop offset="0.416667" stop-color="#92B4C8"/><stop offset="0.423077" stop-color="#94B4C9"/><stop offset="0.429487" stop-color="#95B5CA"/><stop offset="0.435897" stop-color="#96B6CA"/><stop offset="0.442308" stop-color="#97B6CB"/><stop offset="0.448718" stop-color="#98B7CB"/><stop offset="0.455128" stop-color="#99B8CC"/><stop offset="0.461538" stop-color="#9AB8CC"/><stop offset="0.467949" stop-color="#9BB9CD"/><stop offset="0.474359" stop-color="#9CBACD"/><stop offset="0.480769" stop-color="#9EBACE"/><stop offset="0.487179" stop-color="#9FBBCE"/><stop offset="0.49359" stop-color="#A0BCCF"/><stop offset="0.5" stop-color="#A1BCD0"/><stop offset="0.50641" stop-color="#A2BDD0"/><stop offset="0.512821" stop-color="#A3BDD1"/><stop offset="0.519231" stop-color="#A4BED1"/><stop offset="0.525641" stop-color="#A5BFD1"/><stop offset="0.532051" stop-color="#A6BFD2"/><stop offset="0.538462" stop-color="#A7C0D2"/><stop offset="0.544872" stop-color="#A8C0D3"/><stop offset="0.551282" stop-color="#A9C1D3"/><stop offset="0.557692" stop-color="#A9C1D4"/><stop offset="0.564103" stop-color="#AAC2D4"/><stop offset="0.570513" stop-color="#ABC2D5"/><stop offset="0.576923" stop-color="#ACC3D5"/><stop offset="0.583333" stop-color="#ADC3D6"/><stop offset="0.589744" stop-color="#AEC4D6"/><stop offset="0.596154" stop-color="#AFC5D6"/><stop offset="0.602564" stop-color="#B0C5D7"/><stop offset="0.608974" stop-color="#B1C6D7"/><stop offset="0.615385" stop-color="#B1C6D8"/><stop offset="0.621795" stop-color="#B2C6D8"/><stop offset="0.628205" stop-color="#B3C7D8"/><stop offset="0.634615" stop-color="#B4C7D9"/><stop offset="0.641026" stop-color="#B5C8D9"/><stop offset="0.647436" stop-color="#B5C8DA"/><stop offset="0.653846" stop-color="#B6C9DA"/><stop offset="0.660256" stop-color="#B7C9DA"/><stop offset="0.666667" stop-color="#B7CADB"/><stop offset="0.673077" stop-color="#B8CADB"/><stop offset="0.679487" stop-color="#B9CADB"/><stop offset="0.685897" stop-color="#BACBDC"/><stop offset="0.692308" stop-color="#BACBDC"/><stop offset="0.698718" stop-color="#BBCCDC"/><stop offset="0.705128" stop-color="#BCCCDD"/><stop offset="0.711538" stop-color="#BCCCDD"/><stop offset="0.717949" stop-color="#BDCDDD"/><stop offset="0.724359" stop-color="#BDCDDE"/><stop offset="0.730769" stop-color="#BECEDE"/><stop offset="0.737179" stop-color="#BFCEDE"/><stop offset="0.74359" stop-color="#BFCEDE"/><stop offset="0.75" stop-color="#C0CFDF"/><stop offset="0.75641" stop-color="#C0CFDF"/><stop offset="0.762821" stop-color="#C1CFDF"/><stop offset="0.769231" stop-color="#C1D0E0"/><stop offset="0.775641" stop-color="#C2D0E0"/><stop offset="0.782051" stop-color="#C2D0E0"/><stop offset="0.788462" stop-color="#C3D0E0"/><stop offset="0.794872" stop-color="#C3D1E1"/><stop offset="0.801282" stop-color="#C4D1E1"/><stop offset="0.807692" stop-color="#C4D1E1"/><stop offset="0.814103" stop-color="#C5D2E1"/><stop offset="0.820513" stop-color="#C5D2E1"/><stop offset="0.826923" stop-color="#C6D2E2"/><stop offset="0.833333" stop-color="#C6D2E2"/><stop offset="0.839744" stop-color="#C6D2E2"/><stop offset="0.846154" stop-color="#C7D3E2"/><stop offset="0.852564" stop-color="#C7D3E2"/><stop offset="0.858974" stop-color="#C8D3E3"/><stop offset="0.865385" stop-color="#C8D3E3"/><stop offset="0.871795" stop-color="#C8D4E3"/><stop offset="0.878205" stop-color="#C8D4E3"/><stop offset="0.884615" stop-color="#C9D4E3"/><stop offset="0.891026" stop-color="#C9D4E3"/><stop offset="0.897436" stop-color="#C9D4E3"/><stop offset="0.903846" stop-color="#CAD4E4"/><stop offset="0.910256" stop-color="#CAD4E4"/><stop offset="0.916667" stop-color="#CAD5E4"/><stop offset="0.923077" stop-color="#CAD5E4"/><stop offset="0.929487" stop-color="#CAD5E4"/><stop offset="0.935897" stop-color="#CBD5E4"/><stop offset="0.942308" stop-color="#CBD5E4"/><stop offset="0.948718" stop-color="#CBD5E4"/><stop offset="0.955128" stop-color="#CBD5E4"/><stop offset="0.961538" stop-color="#CBD5E4"/><stop offset="0.967949" stop-color="#CBD5E4"/><stop offset="0.974359" stop-color="#CBD5E4"/><stop offset="0.980769" stop-color="#CBD5E4"/><stop offset="0.987179" stop-color="#CBD5E4"/><stop offset="0.99359" stop-color="#CBD5E4"/><stop offset="1" stop-color="#CCD6E5"/></linearGradient><linearGradient x1="89" y1="135.47" x2="252" y2="135.47" gradientUnits="userSpaceOnUse" spreadMethod="reflect" id="fill10"><stop offset="0" stop-color="#2F7998"/><stop offset="0.05" stop-color="#2F7998"/><stop offset="1" stop-color="#D0E7F0"/></linearGradient><linearGradient x1="-1.83333" y1="104.675" x2="3.05885" y2="104.675" gradientUnits="userSpaceOnUse" spreadMethod="reflect" id="stroke11"><stop offset="0" stop-color="#4CA4C7"/><stop offset="0.0217391" stop-color="#4BA3C6"/><stop offset="0.0434783" stop-color="#4BA3C6"/><stop offset="0.0652174" stop-color="#4BA3C6"/><stop offset="0.0869565" stop-color="#4BA3C6"/><stop offset="0.108696" stop-color="#4BA3C6"/><stop offset="0.130435" stop-color="#4BA3C5"/><stop offset="0.152174" stop-color="#4BA2C5"/><stop offset="0.173913" stop-color="#4AA2C5"/><stop offset="0.195652" stop-color="#4AA1C4"/><stop offset="0.217391" stop-color="#4AA1C4"/><stop offset="0.23913" stop-color="#4AA1C3"/><stop offset="0.26087" stop-color="#49A0C3"/><stop offset="0.282609" stop-color="#499FC2"/><stop offset="0.304348" stop-color="#489FC1"/><stop offset="0.326087" stop-color="#489EC1"/><stop offset="0.347826" stop-color="#479EC0"/><stop offset="0.369565" stop-color="#479DBF"/><stop offset="0.391304" stop-color="#479CBE"/><stop offset="0.413043" stop-color="#469BBE"/><stop offset="0.434783" stop-color="#459ABD"/><stop offset="0.456522" stop-color="#459ABC"/><stop offset="0.478261" stop-color="#4499BB"/><stop offset="0.5" stop-color="#4498BA"/><stop offset="0.521739" stop-color="#4397B9"/><stop offset="0.543478" stop-color="#4296B8"/><stop offset="0.565217" stop-color="#4295B6"/><stop offset="0.586957" stop-color="#4194B5"/><stop offset="0.608696" stop-color="#4093B4"/><stop offset="0.630435" stop-color="#3F91B3"/><stop offset="0.652174" stop-color="#3E90B1"/><stop offset="0.673913" stop-color="#3E8FB0"/><stop offset="0.695652" stop-color="#3D8EAF"/><stop offset="0.717391" stop-color="#3C8CAD"/><stop offset="0.73913" stop-color="#3B8BAC"/><stop offset="0.76087" stop-color="#3A8AAA"/><stop offset="0.782609" stop-color="#3988A9"/><stop offset="0.804348" stop-color="#3887A7"/><stop offset="0.826087" stop-color="#3785A6"/><stop offset="0.847826" stop-color="#3684A4"/><stop offset="0.869565" stop-color="#3582A2"/><stop offset="0.891304" stop-color="#3481A1"/><stop offset="0.913043" stop-color="#337F9F"/><stop offset="0.934783" stop-color="#327E9D"/><stop offset="0.956522" stop-color="#317C9B"/><stop offset="0.978261" stop-color="#307A99"/><stop offset="1" stop-color="#2F7998"/></linearGradient></defs><g clip-path="url(#clip0)"><rect x="0" y="0" width="756" height="377.917" fill="#FFFFFF"/><path d="M126.902 266.974C100.143 259.869 70.3187 271.449 44.564 261.349 43.9531 261.048 43.2727 260.91 42.591 260.949 42.0604 261.092 41.5674 261.348 41.1465 261.698L14 281.287C19.8133 280.625 38.8739 281.426 44.0884 281.652 54.247 282.117 64.388 282.929 74.5114 284.09 94.8759 286.419 115.053 290.137 134.899 295.217 146.033 298.055 156.902 302.182 168 304.933 161.426 286.384 146.069 272.201 126.902 266.974Z" fill="#CCD6E5" fill-rule="evenodd"/><path d="M135.602 267.631C120.593 261.331 104.047 259.885 87.7843 259.546 76.7305 259.314 64.7406 259.243 56 252.407 60.1059 251.923 64.1039 250.753 67.8308 248.945 69.3848 251.497 72.4042 252.746 75.2648 253.639 89.3912 257.851 104.595 255.781 119.092 258.404 138.16 261.95 154.929 273.305 165.427 289.779 167.621 293.179 169.172 296.962 170 300.934 166.843 294.311 162.737 288.195 157.816 282.783 151.533 276.228 143.968 271.068 135.602 267.631Z" fill="#CCD6E5" fill-rule="evenodd"/><path d="M124.608 253.499C117.457 251.962 109.638 251.733 102.363 250.991 98.7859 250.702 95.2508 250.021 91.8208 248.959 88.4151 247.899 85.3641 245.919 83 243.236 85.9437 243.545 88.9175 243.102 91.645 241.947 92.0452 243.241 92.8609 244.365 93.9644 245.144 96.9083 247.385 100.364 248.848 104.015 249.401 107.529 250.054 111.307 250.178 114.962 250.531 124.642 251.183 134.008 254.249 142.215 259.452 145.34 261.705 148.278 264.21 151 266.941 143.42 260.372 134.361 255.758 124.608 253.499Z" fill="#CCD6E5" fill-rule="evenodd"/><path d="M170 311.931C170 311.931 105.896 287.167 9.12228 286.937L0 293.535C0 293.535 81.0046 285.84 170 311.931Z" fill="url(#fill1)" fill-rule="evenodd"/><path d="M213.417 267.111C240.338 259.845 270.342 271.687 296.234 261.359 296.849 261.05 297.533 260.909 298.219 260.949 298.752 261.096 299.249 261.357 299.672 261.715L327 281.785C321.152 281.108 301.976 281.927 296.73 282.159 286.499 282.645 276.296 283.476 266.124 284.652 245.613 287.021 225.291 290.811 205.3 295.996 194.1 298.898 183.165 303.119 172 305.932 178.628 286.945 194.107 272.436 213.417 267.111Z" fill="#E7EEF9" fill-rule="evenodd"/><path d="M204.7 267.654C219.841 261.358 236.531 259.931 252.937 259.575 264.088 259.343 276.183 259.271 285 252.441 280.844 251.949 276.799 250.768 273.03 248.945 271.48 251.531 268.452 252.815 265.548 253.671 251.316 257.97 235.979 255.812 221.372 258.433 202.131 261.972 185.207 273.32 174.614 289.787 172.4 293.185 170.836 296.964 170 300.934 173.185 294.316 177.326 288.204 182.291 282.796 188.632 276.249 196.263 271.092 204.7 267.654Z" fill="#E7EEF9" fill-rule="evenodd"/><path d="M215.769 253.532C223.027 251.991 230.964 251.76 238.347 251.016 241.978 250.725 245.566 250.042 249.047 248.979 252.504 247.914 255.6 245.929 258 243.24 255.013 243.55 251.994 243.105 249.226 241.947 248.824 243.242 248.002 244.369 246.889 245.153 243.904 247.403 240.396 248.871 236.688 249.422 233.032 250.077 229.287 250.201 225.578 250.556 215.762 251.187 206.256 254.23 197.917 259.413 194.746 261.68 191.764 264.198 189 266.941 196.699 260.384 205.883 255.782 215.769 253.532Z" fill="#E7EEF9" fill-rule="evenodd"/><path d="M170 311.931C170 311.931 234.508 287.167 331.891 286.937L341 293.535C341 293.535 259.556 285.84 170 311.931Z" fill="url(#fill2)" fill-rule="evenodd"/><path d="M46 296.934C46 296.934 115.313 298.599 170 315.823L170 323.929C170 323.929 140.624 308.188 46 296.934Z" fill="url(#fill3)" fill-rule="evenodd"/><path d="M295 296.934C295 296.934 225.128 298.599 170 315.823L170 323.929C170 323.929 199.613 308.188 295 296.934Z" fill="url(#fill4)" fill-rule="evenodd"/><path d="M243.754 173.473C243.595 173.87 243.143 174.065 242.744 173.907 242.397 173.77 242.197 173.406 242.267 173.041 247.587 146.483 235.15 116.512 211.796 102.599 202.371 96.7035 191.553 93.3803 180.43 92.9624 168.709 92.5624 157.115 95.4884 147 101.399 152.546 94.4216 158.786 88.0198 165.625 82.2912 166.169 81.832 166.727 81.3729 167.277 80.9206 168.358 80.7766 169.432 80.6532 170.519 80.5573 188.828 78.0762 205.932 83.8059 219.388 94.2647 224.066 97.9204 228.294 102.114 231.984 106.759 233.429 108.587 234.787 110.467 236.059 112.4 247.76 130.233 251.91 152.836 243.754 173.473Z" fill="url(#fill5)" fill-rule="evenodd"/><path d="M216.351 180.96C216.406 176.98 215.99 173.008 215.11 169.127L215.11 169.051C212.627 156.841 205.929 145.92 196.209 138.236 186.981 130.967 175.506 127.224 163.811 127.67 161.954 127.846 160.111 128.153 158.296 128.588 156.821 128.665 155.353 128.818 153.898 129.034 150.162 129.581 146.503 130.576 143 131.999 177.259 104.728 227.78 137.101 216.351 180.96Z" fill="url(#fill6)" fill-rule="evenodd"/><path d="M231.317 178.256C226.74 185.935 220.647 192.604 213.409 197.858 213.193 198.02 212.887 197.978 212.723 197.763 212.614 197.618 212.594 197.424 212.672 197.259 214.962 191.944 216.177 186.229 216.246 180.443 227.666 137.114 177.186 105.119 142.954 132.052 132.926 136.096 124.358 143.641 119.929 154.446 119.639 155.072 119.364 155.698 119.102 156.337 118.204 150.842 117.853 145.271 118.055 139.707 118.744 126.639 122.45 113.379 129.193 102.341 129.225 102.281 129.262 102.223 129.303 102.169 133.461 95.2562 139.044 89.306 145.682 84.7131L145.682 84.7131C146.136 84.4999 146.598 84.2867 147.059 84.0872L147.059 84.0872C204.703 57.4913 264.943 123.125 231.317 178.256Z" fill="url(#fill7)" fill-rule="evenodd"/><path d="M193.887 144.096C194.059 144.302 194.032 144.608 193.825 144.779 193.644 144.929 193.381 144.929 193.201 144.779 180.319 133.516 159.95 130.833 144.941 139.161 138.73 142.421 133.488 147.247 129.74 153.155 125.833 159.395 123.786 166.61 123.838 173.962 121.758 168.748 120.213 163.34 119.227 157.817L119 156.493C119.261 155.858 119.535 155.237 119.824 154.616 124.236 143.892 132.774 136.403 142.766 132.389 146.245 130.996 149.878 130.02 153.589 129.481 155.037 129.27 156.498 129.119 157.967 129.044 171.432 128.307 185.158 133.161 193.887 144.096Z" fill="url(#fill8)" fill-rule="evenodd"/><path d="M211.869 241.806C182.196 223.295 147.371 248.669 110.062 203.322 109.978 203.236 109.98 203.099 110.067 203.017 110.144 202.943 110.264 202.935 110.35 202.998 145.587 224.06 181.991 213.15 212.72 240.696 213.031 240.928 213.092 241.364 212.857 241.671 212.623 241.977 212.18 242.037 211.869 241.806Z" fill="url(#fill9)" fill-rule="evenodd"/><path d="M251.1 97.5284C227.329 65.3404 177.089 59.0445 146.079 84.3587L146.079 84.3587C139.462 88.9565 133.897 94.9115 129.753 101.829 129.713 101.884 129.676 101.941 129.644 102.001 122.92 113.01 119.231 126.324 118.538 139.384 118.337 144.95 118.686 150.524 119.582 156.022L119.808 157.356C120.795 162.923 122.342 168.375 124.424 173.629 130.605 189.269 141.594 202.914 156.951 211.116 160.174 212.98 163.525 214.613 166.979 216.001 167.234 216.088 167.37 216.365 167.284 216.62 167.206 216.851 166.971 216.989 166.732 216.944 143.682 213.503 110.88 208.384 100.797 186.93 100.797 186.93 100.797 186.93 100.797 186.93 100.22 185.788 99.6114 184.654 98.9704 183.531L98.9704 183.531C98.4897 182.586 98.0318 181.636 97.5968 180.682 97.4869 180.441 97.3701 180.2 97.2603 179.953 97.259 179.939 97.259 179.925 97.2603 179.911L97.2603 179.911C97.095 179.461 96.9071 179.021 96.6971 178.59L96.5391 178.26 96.5391 178.26C96.3673 177.833 96.1888 177.421 96.0171 177.001 95.8454 176.581 95.6943 176.196 95.5364 175.797 95.2891 175.177 95.0556 174.558 94.8495 173.932 94.6435 173.306 94.3344 172.522 94.094 171.806L94.094 171.806C92.1265 165.875 90.7079 159.776 89.8564 153.586 86.3949 128.526 93.6888 106.632 107.006 89.767 126.814 64.7211 159.946 50.8495 191.031 54.5927 195.061 55.0718 199.048 55.8538 202.961 56.9321 222.192 62.2441 239.857 75.0835 251.924 97.0055 252.068 97.2336 252.001 97.5354 251.773 97.6798 251.546 97.8242 251.244 97.7565 251.1 97.5284Z" fill="url(#fill10)" fill-rule="evenodd"/><text fill="#2F7998" font-family="NK192,NK192_MSFontService,sans-serif" font-weight="700" font-size="96" transform="matrix(1 0 0 0.99978 373.915 176)">PACIFIC<tspan font-size="96" x="0" y="115.025">library</tspan></text><path d="M0 0 1.22551 209.35" stroke="url(#stroke11)" stroke-width="3.66667" stroke-linecap="round" stroke-miterlimit="8" fill="none" fill-rule="evenodd" transform="matrix(-1.00022 0 0 1 355.226 84.9813)"/></g></svg>