<svg width="54" height="54" xmlns="http://www.w3.org/2000/svg" xmlns:xlink="http://www.w3.org/1999/xlink" xml:space="preserve" overflow="hidden"><defs><clipPath id="clip0"><rect x="351" y="162" width="54" height="54"/></clipPath></defs><g clip-path="url(#clip0)" transform="translate(-351 -162)"><path d="M404.421 202.952C402.411 199.152 395.431 195.031 395.123 194.851 394.226 194.341 393.29 194.07 392.414 194.07 391.112 194.07 390.046 194.667 389.4 195.752 388.379 196.974 387.113 198.401 386.805 198.622 384.427 200.236 382.565 200.053 380.505 197.993L369.006 186.493C366.959 184.446 366.771 182.561 368.374 180.196 368.598 179.886 370.025 178.619 371.247 177.597 372.026 177.133 372.56 176.445 372.794 175.6 373.106 174.475 372.876 173.153 372.142 171.865 371.969 171.568 367.846 164.587 364.048 162.578 363.339 162.202 362.54 162.004 361.74 162.004 360.42 162.004 359.179 162.519 358.246 163.451L355.705 165.99C351.687 170.008 350.232 174.561 351.379 179.525 352.336 183.661 355.125 188.063 359.67 192.607L374.391 207.328C380.143 213.08 385.627 215.997 390.691 215.997 390.691 215.997 390.691 215.997 390.692 215.997 394.416 215.997 397.887 214.414 401.008 211.294L403.547 208.754C405.091 207.212 405.441 204.879 404.421 202.952Z" fill="#2F7998"/></g></svg>